<svg xmlns="http://www.w3.org/2000/svg" viewBox="0 0 64 64" fill="none">
  <circle cx="32" cy="32" r="30" fill="url(#nightGrad)" stroke="#2c3e50" stroke-width="2"/>
  <path d="M38 12c-12 0-22 10-22 22s10 22 22 22c2 0 4-.3 6-.7-4-3-7-8-7-14 0-9 7-16 16-16 1 0 2 0 3 .2C53 16 46 12 38 12z" fill="#f1c40f"/>
  <circle cx="20" cy="18" r="1.5" fill="#fff" opacity="0.8"/>
  <circle cx="50" cy="24" r="1" fill="#fff" opacity="0.6"/>
  <circle cx="14" cy="38" r="1.2" fill="#fff" opacity="0.7"/>
  <circle cx="52" cy="42" r="1.5" fill="#fff" opacity="0.8"/>
  <circle cx="24" cy="50" r="1" fill="#fff" opacity="0.5"/>
  <defs>
    <linearGradient id="nightGrad" x1="0" y1="0" x2="64" y2="64">
      <stop offset="0%" stop-color="#1a1a2e"/>
      <stop offset="100%" stop-color="#16213e"/>
    </linearGradient>
  </defs>
</svg>
