<svg xmlns="http://www.w3.org/2000/svg" viewBox="0 0 64 64" fill="none">
  <circle cx="32" cy="32" r="30" fill="url(#discussGrad)" stroke="#3498db" stroke-width="2"/>
  <path d="M18 20h20c2.2 0 4 1.8 4 4v12c0 2.2-1.8 4-4 4h-6l-6 6v-6h-8c-2.2 0-4-1.8-4-4V24c0-2.2 1.8-4 4-4z" fill="#fff"/>
  <circle cx="22" cy="30" r="2" fill="#3498db"/>
  <circle cx="28" cy="30" r="2" fill="#3498db"/>
  <circle cx="34" cy="30" r="2" fill="#3498db"/>
  <path d="M46 28h-4v8h4l4 4v-4c2.2 0 4-1.8 4-4v-4c0-2.2-1.8-4-4-4h-8c-1.1 0-2.1.5-2.8 1.2" stroke="#fff" stroke-width="2" fill="none" opacity="0.6"/>
  <defs>
    <linearGradient id="discussGrad" x1="0" y1="0" x2="64" y2="64">
      <stop offset="0%" stop-color="#3498db"/>
      <stop offset="100%" stop-color="#2980b9"/>
    </linearGradient>
  </defs>
</svg>
