<svg xmlns="http://www.w3.org/2000/svg" viewBox="0 0 48 48" fill="none">
  <circle cx="24" cy="24" r="20" fill="#24292e"/>
  <path d="M24 8C15.16 8 8 15.16 8 24C8 31.08 12.58 37.06 18.94 39.18C19.74 39.32 20.04 38.82 20.04 38.4C20.04 38.02 20.02 36.82 20.02 35.54C15.2 36.42 14.22 33.26 14.22 33.26C13.5 31.42 12.44 30.94 12.44 30.94C10.98 29.94 12.56 29.96 12.56 29.96C14.18 30.08 15.04 31.62 15.04 31.62C16.48 34.06 18.82 33.4 20.1 32.98C20.24 31.98 20.64 31.3 21.08 30.92C17.34 30.54 13.42 29.14 13.42 22.92C13.42 21.16 14.04 19.72 15.08 18.58C14.92 18.2 14.36 16.54 15.24 14.3C15.24 14.3 16.58 13.88 20 15.98C21.3 15.64 22.68 15.46 24.04 15.46C25.4 15.46 26.78 15.64 28.08 15.98C31.5 13.88 32.84 14.3 32.84 14.3C33.72 16.54 33.16 18.2 33 18.58C34.04 19.72 34.66 21.16 34.66 22.92C34.66 29.16 30.72 30.52 26.96 30.9C27.52 31.38 28.02 32.32 28.02 33.76C28.02 35.82 28 37.48 28 38.4C28 38.82 28.3 39.34 29.12 39.18C35.44 37.04 40 31.08 40 24C40 15.16 32.84 8 24 8Z" fill="white"/>
</svg>
